<svg xmlns="http://www.w3.org/2000/svg" viewBox="0 0 564.08 116.00" width="564" height="116" fill="none" role="img" aria-label="BASE">
  <g transform="translate(8.0000 8.0000) scale(0.246305)">
    <path d="M203 0H309L394 85L309 170H203L118 85Z" fill="#d91f35"/>
    <path d="M85 119L169 203L85 287L0 203Z" fill="#d91f35"/>
    <path d="M203 236H309L394 321L309 406H203L118 321Z" fill="#d91f35"/>
  </g>
  <g transform="matrix(0.06579 0.00000 0.00000 -0.06579 132.72855 108.00000)">
    <path d="M96 0V121H287V1372H96V1493H981Q1254 1493 1391.0 1401.0Q1528 1309 1528 1124Q1528 991 1433.5 913.0Q1339 835 1153 815Q1378 794 1498.0 695.0Q1618 596 1618 432Q1618 210 1450.5 105.0Q1283 0 926 0ZM672 870H803Q975 870 1058.0 932.5Q1141 995 1141 1124Q1141 1254 1060.5 1313.0Q980 1372 803 1372H672ZM672 121H815Q1006 121 1098.0 197.0Q1190 273 1190 432Q1190 592 1097.0 671.0Q1004 750 815 750H672Z M1775 0V121H1897L2459 1493H2698L3261 121H3403V0H2704V121H2850L2727 426H2166L2041 121H2219V0ZM2215 547H2678L2448 1118Z M3598 72V426H3725Q3754 258 3862.0 175.0Q3970 92 4161 92Q4316 92 4397.0 151.0Q4478 210 4478 324Q4478 414 4423.0 464.0Q4368 514 4196 557L3972 612Q3753 668 3664.0 767.5Q3575 867 3575 1051Q3575 1273 3722.5 1396.5Q3870 1520 4136 1520Q4267 1520 4408.5 1498.0Q4550 1476 4702 1432V1102H4575Q4546 1256 4448.0 1327.5Q4350 1399 4169 1399Q4021 1399 3945.5 1347.5Q3870 1296 3870 1194Q3870 1101 3922.0 1052.5Q3974 1004 4177 952L4401 897Q4609 845 4702.5 735.0Q4796 625 4796 432Q4796 206 4640.0 88.5Q4484 -29 4181 -29Q4035 -29 3891.0 -4.0Q3747 21 3598 72Z M5075 0V121H5266V1372H5075V1493H6417V1141H6279V1356H5651V877H6042V1067H6179V551H6042V741H5651V137H6298V352H6435V0Z" fill="#0b0b0c"/>
  </g>
</svg>
